<svg width="232" height="46" viewBox="0 0 232 46" fill="none" xmlns="http://www.w3.org/2000/svg">
<mask id="mask0_481501_2501" style="mask-type:alpha" maskUnits="userSpaceOnUse" x="55" y="8" width="31" height="30">
<rect x="55.9984" y="8" width="30" height="30" fill="#D9D9D9"/>
</mask>
<g mask="url(#mask0_481501_2501)">
<path d="M70.9984 30.5C69.8317 30.5 68.7172 30.6823 67.6547 31.0469C66.5922 31.4115 65.6234 31.9583 64.7484 32.6875V33H77.2484V32.6875C76.3734 31.9583 75.4047 31.4115 74.3422 31.0469C73.2797 30.6823 72.1651 30.5 70.9984 30.5ZM62.2484 31.5625C63.3734 30.4583 64.6807 29.5885 66.1703 28.9531C67.6599 28.3177 69.2692 28 70.9984 28C72.7276 28 74.337 28.3177 75.8265 28.9531C77.3161 29.5885 78.6234 30.4583 79.7484 31.5625V15.5H62.2484V31.5625ZM70.9984 25.5C69.7901 25.5 68.7588 25.0729 67.9047 24.2188C67.0505 23.3646 66.6234 22.3333 66.6234 21.125C66.6234 19.9167 67.0505 18.8854 67.9047 18.0312C68.7588 17.1771 69.7901 16.75 70.9984 16.75C72.2067 16.75 73.238 17.1771 74.0922 18.0312C74.9463 18.8854 75.3734 19.9167 75.3734 21.125C75.3734 22.3333 74.9463 23.3646 74.0922 24.2188C73.238 25.0729 72.2067 25.5 70.9984 25.5ZM70.9984 23C71.5192 23 71.962 22.8177 72.3265 22.4531C72.6911 22.0885 72.8734 21.6458 72.8734 21.125C72.8734 20.6042 72.6911 20.1615 72.3265 19.7969C71.962 19.4323 71.5192 19.25 70.9984 19.25C70.4776 19.25 70.0349 19.4323 69.6703 19.7969C69.3057 20.1615 69.1234 20.6042 69.1234 21.125C69.1234 21.6458 69.3057 22.0885 69.6703 22.4531C70.0349 22.8177 70.4776 23 70.9984 23ZM62.2484 35.5C61.5609 35.5 60.9724 35.2552 60.4828 34.7656C59.9932 34.276 59.7484 33.6875 59.7484 33V15.5C59.7484 14.8125 59.9932 14.224 60.4828 13.7344C60.9724 13.2448 61.5609 13 62.2484 13H63.4984V10.5H65.9984V13H75.9984V10.5H78.4984V13H79.7484C80.4359 13 81.0245 13.2448 81.514 13.7344C82.0036 14.224 82.2484 14.8125 82.2484 15.5V33C82.2484 33.6875 82.0036 34.276 81.514 34.7656C81.0245 35.2552 80.4359 35.5 79.7484 35.5H62.2484Z" fill="#CDCDCD"/>
</g>
<path d="M104.771 20.5H103.362C103.279 20.0947 103.133 19.7386 102.925 19.4318C102.72 19.125 102.47 18.8674 102.175 18.6591C101.883 18.447 101.559 18.2879 101.203 18.1818C100.847 18.0758 100.476 18.0227 100.089 18.0227C99.3848 18.0227 98.7465 18.2008 98.1745 18.5568C97.6064 18.9129 97.1537 19.4375 96.8166 20.1307C96.4833 20.8239 96.3166 21.6742 96.3166 22.6818C96.3166 23.6894 96.4833 24.5398 96.8166 25.233C97.1537 25.9261 97.6064 26.4508 98.1745 26.8068C98.7465 27.1629 99.3848 27.3409 100.089 27.3409C100.476 27.3409 100.847 27.2879 101.203 27.1818C101.559 27.0758 101.883 26.9186 102.175 26.7102C102.47 26.4981 102.72 26.2386 102.925 25.9318C103.133 25.6212 103.279 25.2652 103.362 24.8636H104.771C104.665 25.4583 104.472 25.9905 104.192 26.4602C103.911 26.9299 103.563 27.3295 103.146 27.6591C102.729 27.9848 102.262 28.233 101.743 28.4034C101.228 28.5739 100.676 28.6591 100.089 28.6591C99.0969 28.6591 98.2143 28.4167 97.4416 27.9318C96.6689 27.447 96.0609 26.7576 95.6177 25.8636C95.1745 24.9697 94.953 23.9091 94.953 22.6818C94.953 21.4545 95.1745 20.3939 95.6177 19.5C96.0609 18.6061 96.6689 17.9167 97.4416 17.4318C98.2143 16.947 99.0969 16.7045 100.089 16.7045C100.676 16.7045 101.228 16.7898 101.743 16.9602C102.262 17.1307 102.729 17.3807 103.146 17.7102C103.563 18.036 103.911 18.4337 104.192 18.9034C104.472 19.3693 104.665 19.9015 104.771 20.5ZM110.412 28.6818C109.624 28.6818 108.933 28.4943 108.338 28.1193C107.747 27.7443 107.285 27.2197 106.952 26.5455C106.622 25.8712 106.457 25.0833 106.457 24.1818C106.457 23.2727 106.622 22.4792 106.952 21.8011C107.285 21.1231 107.747 20.5966 108.338 20.2216C108.933 19.8466 109.624 19.6591 110.412 19.6591C111.2 19.6591 111.889 19.8466 112.48 20.2216C113.075 20.5966 113.537 21.1231 113.866 21.8011C114.2 22.4792 114.366 23.2727 114.366 24.1818C114.366 25.0833 114.2 25.8712 113.866 26.5455C113.537 27.2197 113.075 27.7443 112.48 28.1193C111.889 28.4943 111.2 28.6818 110.412 28.6818ZM110.412 27.4773C111.01 27.4773 111.503 27.3239 111.889 27.017C112.275 26.7102 112.561 26.3068 112.747 25.8068C112.933 25.3068 113.025 24.7652 113.025 24.1818C113.025 23.5985 112.933 23.0549 112.747 22.5511C112.561 22.0473 112.275 21.6402 111.889 21.3295C111.503 21.0189 111.01 20.8636 110.412 20.8636C109.813 20.8636 109.321 21.0189 108.934 21.3295C108.548 21.6402 108.262 22.0473 108.077 22.5511C107.891 23.0549 107.798 23.5985 107.798 24.1818C107.798 24.7652 107.891 25.3068 108.077 25.8068C108.262 26.3068 108.548 26.7102 108.934 27.017C109.321 27.3239 109.813 27.4773 110.412 27.4773ZM117.754 23.25V28.5H116.413V19.7727H117.709V21.1364H117.822C118.027 20.6932 118.337 20.3371 118.754 20.0682C119.171 19.7955 119.709 19.6591 120.368 19.6591C120.959 19.6591 121.476 19.7803 121.919 20.0227C122.362 20.2614 122.707 20.625 122.953 21.1136C123.199 21.5985 123.322 22.2121 123.322 22.9545V28.5H121.981V23.0455C121.981 22.3598 121.803 21.8258 121.447 21.4432C121.091 21.0568 120.603 20.8636 119.981 20.8636C119.553 20.8636 119.171 20.9564 118.834 21.142C118.5 21.3277 118.237 21.5985 118.044 21.9545C117.851 22.3106 117.754 22.7424 117.754 23.25ZM129.568 19.7727V20.9091H125.045V19.7727H129.568ZM126.363 17.6818H127.704V26C127.704 26.3788 127.759 26.6629 127.869 26.8523C127.983 27.0379 128.127 27.1629 128.301 27.2273C128.479 27.2879 128.667 27.3182 128.863 27.3182C129.011 27.3182 129.132 27.3106 129.227 27.2955C129.322 27.2765 129.398 27.2614 129.454 27.25L129.727 28.4545C129.636 28.4886 129.509 28.5227 129.346 28.5568C129.184 28.5947 128.977 28.6136 128.727 28.6136C128.348 28.6136 127.977 28.5322 127.613 28.3693C127.254 28.2064 126.954 27.9583 126.716 27.625C126.481 27.2917 126.363 26.8712 126.363 26.3636V17.6818ZM134.153 28.7045C133.6 28.7045 133.098 28.6004 132.648 28.392C132.197 28.1799 131.839 27.875 131.574 27.4773C131.309 27.0758 131.176 26.5909 131.176 26.0227C131.176 25.5227 131.274 25.1174 131.471 24.8068C131.668 24.4924 131.932 24.2462 132.261 24.0682C132.591 23.8902 132.954 23.7576 133.352 23.6705C133.754 23.5795 134.157 23.5076 134.562 23.4545C135.093 23.3864 135.523 23.3352 135.852 23.3011C136.185 23.2633 136.428 23.2008 136.579 23.1136C136.735 23.0265 136.812 22.875 136.812 22.6591V22.6136C136.812 22.053 136.659 21.6174 136.352 21.3068C136.049 20.9962 135.589 20.8409 134.971 20.8409C134.331 20.8409 133.829 20.9811 133.466 21.2614C133.102 21.5417 132.846 21.8409 132.699 22.1591L131.426 21.7045C131.653 21.1742 131.956 20.7614 132.335 20.4659C132.718 20.1667 133.134 19.9583 133.585 19.8409C134.04 19.7197 134.487 19.6591 134.926 19.6591C135.206 19.6591 135.528 19.6932 135.892 19.7614C136.259 19.8258 136.613 19.9602 136.954 20.1648C137.299 20.3693 137.585 20.678 137.812 21.0909C138.04 21.5038 138.153 22.0568 138.153 22.75V28.5H136.812V27.3182H136.744C136.653 27.5076 136.502 27.7102 136.29 27.9261C136.077 28.142 135.795 28.3258 135.443 28.4773C135.091 28.6288 134.661 28.7045 134.153 28.7045ZM134.358 27.5C134.888 27.5 135.335 27.3958 135.699 27.1875C136.066 26.9792 136.343 26.7102 136.528 26.3807C136.718 26.0511 136.812 25.7045 136.812 25.3409V24.1136C136.756 24.1818 136.631 24.2443 136.437 24.3011C136.248 24.3542 136.028 24.4015 135.778 24.4432C135.532 24.4811 135.292 24.5152 135.057 24.5455C134.826 24.572 134.638 24.5947 134.494 24.6136C134.146 24.6591 133.82 24.733 133.517 24.8352C133.218 24.9337 132.975 25.0833 132.79 25.2841C132.608 25.4811 132.517 25.75 132.517 26.0909C132.517 26.5568 132.689 26.9091 133.034 27.1477C133.382 27.3826 133.824 27.5 134.358 27.5ZM144.146 28.6818C143.328 28.6818 142.623 28.4886 142.033 28.1023C141.442 27.7159 140.987 27.1837 140.669 26.5057C140.351 25.8277 140.192 25.053 140.192 24.1818C140.192 23.2955 140.354 22.5133 140.68 21.8352C141.01 21.1534 141.468 20.6212 142.055 20.2386C142.646 19.8523 143.336 19.6591 144.123 19.6591C144.737 19.6591 145.29 19.7727 145.783 20C146.275 20.2273 146.678 20.5455 146.993 20.9545C147.307 21.3636 147.502 21.8409 147.578 22.3864H146.237C146.135 21.9886 145.908 21.6364 145.555 21.3295C145.207 21.0189 144.737 20.8636 144.146 20.8636C143.623 20.8636 143.165 21 142.771 21.2727C142.381 21.5417 142.076 21.9223 141.856 22.4148C141.64 22.9034 141.533 23.4773 141.533 24.1364C141.533 24.8106 141.639 25.3977 141.851 25.8977C142.067 26.3977 142.37 26.786 142.76 27.0625C143.154 27.339 143.616 27.4773 144.146 27.4773C144.495 27.4773 144.811 27.4167 145.095 27.2955C145.379 27.1742 145.62 27 145.817 26.7727C146.014 26.5455 146.154 26.2727 146.237 25.9545H147.578C147.502 26.4697 147.315 26.9337 147.015 27.3466C146.72 27.7557 146.328 28.0814 145.839 28.3239C145.354 28.5625 144.79 28.6818 144.146 28.6818ZM153.334 19.7727V20.9091H148.811V19.7727H153.334ZM150.129 17.6818H151.47V26C151.47 26.3788 151.525 26.6629 151.635 26.8523C151.748 27.0379 151.892 27.1629 152.067 27.2273C152.245 27.2879 152.432 27.3182 152.629 27.3182C152.777 27.3182 152.898 27.3106 152.993 27.2955C153.087 27.2765 153.163 27.2614 153.22 27.25L153.493 28.4545C153.402 28.4886 153.275 28.5227 153.112 28.5568C152.949 28.5947 152.743 28.6136 152.493 28.6136C152.114 28.6136 151.743 28.5322 151.379 28.3693C151.019 28.2064 150.72 27.9583 150.481 27.625C150.247 27.2917 150.129 26.8712 150.129 26.3636V17.6818ZM161.376 21.7273L160.172 22.0682C160.096 21.8674 159.984 21.6723 159.836 21.483C159.693 21.2898 159.496 21.1307 159.246 21.0057C158.996 20.8807 158.675 20.8182 158.285 20.8182C157.751 20.8182 157.306 20.9413 156.95 21.1875C156.598 21.4299 156.422 21.7386 156.422 22.1136C156.422 22.447 156.543 22.7102 156.785 22.9034C157.028 23.0966 157.407 23.2576 157.922 23.3864L159.217 23.7045C159.997 23.8939 160.579 24.1837 160.961 24.5739C161.344 24.9602 161.535 25.4583 161.535 26.0682C161.535 26.5682 161.391 27.0152 161.104 27.4091C160.819 27.803 160.422 28.1136 159.91 28.3409C159.399 28.5682 158.804 28.6818 158.126 28.6818C157.236 28.6818 156.499 28.4886 155.916 28.1023C155.333 27.7159 154.963 27.1515 154.808 26.4091L156.081 26.0909C156.202 26.5606 156.431 26.9129 156.768 27.1477C157.109 27.3826 157.554 27.5 158.104 27.5C158.729 27.5 159.225 27.3674 159.592 27.1023C159.963 26.8333 160.149 26.5114 160.149 26.1364C160.149 25.8333 160.043 25.5795 159.831 25.375C159.619 25.1667 159.293 25.0114 158.854 24.9091L157.399 24.5682C156.6 24.3788 156.013 24.0852 155.638 23.6875C155.266 23.286 155.081 22.7841 155.081 22.1818C155.081 21.6894 155.219 21.2538 155.496 20.875C155.776 20.4962 156.157 20.1989 156.638 19.983C157.122 19.767 157.672 19.6591 158.285 19.6591C159.149 19.6591 159.827 19.8485 160.319 20.2273C160.816 20.6061 161.168 21.1061 161.376 21.7273Z" fill="#CDCDCD"/>
</svg>
